<svg id="visual" viewBox="0 0 1920 200" width="1920" height="200" xmlns="http://www.w3.org/2000/svg" xmlns:xlink="http://www.w3.org/1999/xlink" version="1.1"><rect x="0" y="0" width="1920" height="200" fill="#0A0A0A"></rect><path d="M0 58L16 63.5C32 69 64 80 96 83C128 86 160 81 192 81.7C224 82.3 256 88.7 288 97.8C320 107 352 119 384 114.3C416 109.7 448 88.3 480 74.7C512 61 544 55 576 53.2C608 51.3 640 53.7 672 61.5C704 69.3 736 82.7 768 87C800 91.3 832 86.7 864 86.3C896 86 928 90 960 84.7C992 79.3 1024 64.7 1056 63.3C1088 62 1120 74 1152 76.2C1184 78.3 1216 70.7 1248 71.8C1280 73 1312 83 1344 79C1376 75 1408 57 1440 46.3C1472 35.7 1504 32.3 1536 32.2C1568 32 1600 35 1632 35.5C1664 36 1696 34 1728 42.3C1760 50.7 1792 69.3 1824 75.5C1856 81.7 1888 75.3 1904 72.2L1920 69L1920 201L1904 201C1888 201 1856 201 1824 201C1792 201 1760 201 1728 201C1696 201 1664 201 1632 201C1600 201 1568 201 1536 201C1504 201 1472 201 1440 201C1408 201 1376 201 1344 201C1312 201 1280 201 1248 201C1216 201 1184 201 1152 201C1120 201 1088 201 1056 201C1024 201 992 201 960 201C928 201 896 201 864 201C832 201 800 201 768 201C736 201 704 201 672 201C640 201 608 201 576 201C544 201 512 201 480 201C448 201 416 201 384 201C352 201 320 201 288 201C256 201 224 201 192 201C160 201 128 201 96 201C64 201 32 201 16 201L0 201Z" fill="#000000"></path><path d="M0 105L16 94.5C32 84 64 63 96 67.3C128 71.7 160 101.3 192 107.7C224 114 256 97 288 90.2C320 83.3 352 86.7 384 82.3C416 78 448 66 480 72.7C512 79.3 544 104.7 576 107.3C608 110 640 90 672 88C704 86 736 102 768 96.2C800 90.3 832 62.7 864 52.7C896 42.7 928 50.3 960 68C992 85.7 1024 113.3 1056 117.8C1088 122.3 1120 103.7 1152 87C1184 70.3 1216 55.7 1248 59.5C1280 63.3 1312 85.7 1344 97.7C1376 109.7 1408 111.3 1440 109.8C1472 108.3 1504 103.7 1536 103.2C1568 102.7 1600 106.3 1632 110.7C1664 115 1696 120 1728 122.8C1760 125.7 1792 126.3 1824 117.5C1856 108.7 1888 90.3 1904 81.2L1920 72L1920 201L1904 201C1888 201 1856 201 1824 201C1792 201 1760 201 1728 201C1696 201 1664 201 1632 201C1600 201 1568 201 1536 201C1504 201 1472 201 1440 201C1408 201 1376 201 1344 201C1312 201 1280 201 1248 201C1216 201 1184 201 1152 201C1120 201 1088 201 1056 201C1024 201 992 201 960 201C928 201 896 201 864 201C832 201 800 201 768 201C736 201 704 201 672 201C640 201 608 201 576 201C544 201 512 201 480 201C448 201 416 201 384 201C352 201 320 201 288 201C256 201 224 201 192 201C160 201 128 201 96 201C64 201 32 201 16 201L0 201Z" fill="#000000"></path><path d="M0 68L16 65.2C32 62.3 64 56.7 96 53.7C128 50.7 160 50.3 192 50.3C224 50.3 256 50.7 288 62.2C320 73.7 352 96.3 384 97.3C416 98.3 448 77.7 480 75.2C512 72.7 544 88.3 576 88.5C608 88.7 640 73.3 672 74.7C704 76 736 94 768 102.7C800 111.3 832 110.7 864 116.5C896 122.3 928 134.7 960 127.3C992 120 1024 93 1056 90.3C1088 87.7 1120 109.3 1152 122C1184 134.7 1216 138.3 1248 126.5C1280 114.7 1312 87.3 1344 84.2C1376 81 1408 102 1440 109.2C1472 116.3 1504 109.7 1536 111.8C1568 114 1600 125 1632 121.5C1664 118 1696 100 1728 91.2C1760 82.3 1792 82.7 1824 86.2C1856 89.7 1888 96.3 1904 99.7L1920 103L1920 201L1904 201C1888 201 1856 201 1824 201C1792 201 1760 201 1728 201C1696 201 1664 201 1632 201C1600 201 1568 201 1536 201C1504 201 1472 201 1440 201C1408 201 1376 201 1344 201C1312 201 1280 201 1248 201C1216 201 1184 201 1152 201C1120 201 1088 201 1056 201C1024 201 992 201 960 201C928 201 896 201 864 201C832 201 800 201 768 201C736 201 704 201 672 201C640 201 608 201 576 201C544 201 512 201 480 201C448 201 416 201 384 201C352 201 320 201 288 201C256 201 224 201 192 201C160 201 128 201 96 201C64 201 32 201 16 201L0 201Z" fill="#000000"></path><path d="M0 109L16 114.2C32 119.3 64 129.7 96 128.8C128 128 160 116 192 109C224 102 256 100 288 106.2C320 112.3 352 126.7 384 135.2C416 143.7 448 146.3 480 139C512 131.7 544 114.3 576 106.3C608 98.3 640 99.7 672 103.3C704 107 736 113 768 117.8C800 122.7 832 126.3 864 130C896 133.7 928 137.3 960 132.5C992 127.7 1024 114.3 1056 107.7C1088 101 1120 101 1152 95.7C1184 90.3 1216 79.7 1248 86C1280 92.3 1312 115.7 1344 125.8C1376 136 1408 133 1440 126C1472 119 1504 108 1536 108.7C1568 109.3 1600 121.7 1632 124C1664 126.3 1696 118.7 1728 109.5C1760 100.3 1792 89.7 1824 82.2C1856 74.7 1888 70.3 1904 68.2L1920 66L1920 201L1904 201C1888 201 1856 201 1824 201C1792 201 1760 201 1728 201C1696 201 1664 201 1632 201C1600 201 1568 201 1536 201C1504 201 1472 201 1440 201C1408 201 1376 201 1344 201C1312 201 1280 201 1248 201C1216 201 1184 201 1152 201C1120 201 1088 201 1056 201C1024 201 992 201 960 201C928 201 896 201 864 201C832 201 800 201 768 201C736 201 704 201 672 201C640 201 608 201 576 201C544 201 512 201 480 201C448 201 416 201 384 201C352 201 320 201 288 201C256 201 224 201 192 201C160 201 128 201 96 201C64 201 32 201 16 201L0 201Z" fill="#000000"></path><path d="M0 149L16 140C32 131 64 113 96 102.3C128 91.7 160 88.3 192 89.2C224 90 256 95 288 103.8C320 112.7 352 125.3 384 133.2C416 141 448 144 480 138C512 132 544 117 576 113.8C608 110.7 640 119.3 672 127.2C704 135 736 142 768 146.3C800 150.7 832 152.3 864 148.5C896 144.7 928 135.3 960 125C992 114.7 1024 103.3 1056 101.7C1088 100 1120 108 1152 119.2C1184 130.3 1216 144.7 1248 145.7C1280 146.7 1312 134.3 1344 122C1376 109.7 1408 97.3 1440 101.2C1472 105 1504 125 1536 133.3C1568 141.7 1600 138.3 1632 129.5C1664 120.7 1696 106.3 1728 109C1760 111.7 1792 131.3 1824 131C1856 130.7 1888 110.3 1904 100.2L1920 90L1920 201L1904 201C1888 201 1856 201 1824 201C1792 201 1760 201 1728 201C1696 201 1664 201 1632 201C1600 201 1568 201 1536 201C1504 201 1472 201 1440 201C1408 201 1376 201 1344 201C1312 201 1280 201 1248 201C1216 201 1184 201 1152 201C1120 201 1088 201 1056 201C1024 201 992 201 960 201C928 201 896 201 864 201C832 201 800 201 768 201C736 201 704 201 672 201C640 201 608 201 576 201C544 201 512 201 480 201C448 201 416 201 384 201C352 201 320 201 288 201C256 201 224 201 192 201C160 201 128 201 96 201C64 201 32 201 16 201L0 201Z" fill="#000000"></path><path d="M0 111L16 120.3C32 129.7 64 148.3 96 157.5C128 166.7 160 166.3 192 162.7C224 159 256 152 288 146.2C320 140.3 352 135.7 384 134.7C416 133.7 448 136.3 480 137.2C512 138 544 137 576 136.5C608 136 640 136 672 130.2C704 124.3 736 112.7 768 113.3C800 114 832 127 864 132.5C896 138 928 136 960 140.5C992 145 1024 156 1056 151.7C1088 147.3 1120 127.7 1152 118.2C1184 108.7 1216 109.3 1248 112C1280 114.7 1312 119.3 1344 122C1376 124.7 1408 125.3 1440 122.2C1472 119 1504 112 1536 112.7C1568 113.3 1600 121.7 1632 124.8C1664 128 1696 126 1728 132C1760 138 1792 152 1824 152.7C1856 153.3 1888 140.7 1904 134.3L1920 128L1920 201L1904 201C1888 201 1856 201 1824 201C1792 201 1760 201 1728 201C1696 201 1664 201 1632 201C1600 201 1568 201 1536 201C1504 201 1472 201 1440 201C1408 201 1376 201 1344 201C1312 201 1280 201 1248 201C1216 201 1184 201 1152 201C1120 201 1088 201 1056 201C1024 201 992 201 960 201C928 201 896 201 864 201C832 201 800 201 768 201C736 201 704 201 672 201C640 201 608 201 576 201C544 201 512 201 480 201C448 201 416 201 384 201C352 201 320 201 288 201C256 201 224 201 192 201C160 201 128 201 96 201C64 201 32 201 16 201L0 201Z" fill="#070707"></path><path d="M0 117L16 122.8C32 128.7 64 140.3 96 142.2C128 144 160 136 192 130.3C224 124.7 256 121.3 288 125.3C320 129.3 352 140.7 384 141C416 141.3 448 130.7 480 125.5C512 120.3 544 120.7 576 120.8C608 121 640 121 672 128.2C704 135.3 736 149.7 768 151C800 152.3 832 140.7 864 139.8C896 139 928 149 960 155.2C992 161.3 1024 163.7 1056 162.7C1088 161.7 1120 157.3 1152 153C1184 148.7 1216 144.3 1248 139.7C1280 135 1312 130 1344 127.3C1376 124.7 1408 124.3 1440 125.5C1472 126.7 1504 129.3 1536 135.5C1568 141.7 1600 151.3 1632 151C1664 150.7 1696 140.3 1728 135.8C1760 131.3 1792 132.7 1824 136.8C1856 141 1888 148 1904 151.5L1920 155L1920 201L1904 201C1888 201 1856 201 1824 201C1792 201 1760 201 1728 201C1696 201 1664 201 1632 201C1600 201 1568 201 1536 201C1504 201 1472 201 1440 201C1408 201 1376 201 1344 201C1312 201 1280 201 1248 201C1216 201 1184 201 1152 201C1120 201 1088 201 1056 201C1024 201 992 201 960 201C928 201 896 201 864 201C832 201 800 201 768 201C736 201 704 201 672 201C640 201 608 201 576 201C544 201 512 201 480 201C448 201 416 201 384 201C352 201 320 201 288 201C256 201 224 201 192 201C160 201 128 201 96 201C64 201 32 201 16 201L0 201Z" fill="#121212"></path><path d="M0 167L16 165C32 163 64 159 96 161C128 163 160 171 192 169.8C224 168.7 256 158.3 288 155.5C320 152.7 352 157.3 384 158.3C416 159.3 448 156.7 480 154.3C512 152 544 150 576 153.3C608 156.7 640 165.3 672 164.5C704 163.7 736 153.3 768 146.7C800 140 832 137 864 140.3C896 143.7 928 153.3 960 161C992 168.7 1024 174.3 1056 171.8C1088 169.3 1120 158.7 1152 156.8C1184 155 1216 162 1248 160.5C1280 159 1312 149 1344 144C1376 139 1408 139 1440 141.7C1472 144.3 1504 149.7 1536 156.2C1568 162.7 1600 170.3 1632 167C1664 163.7 1696 149.3 1728 147.3C1760 145.3 1792 155.7 1824 162.7C1856 169.7 1888 173.3 1904 175.2L1920 177L1920 201L1904 201C1888 201 1856 201 1824 201C1792 201 1760 201 1728 201C1696 201 1664 201 1632 201C1600 201 1568 201 1536 201C1504 201 1472 201 1440 201C1408 201 1376 201 1344 201C1312 201 1280 201 1248 201C1216 201 1184 201 1152 201C1120 201 1088 201 1056 201C1024 201 992 201 960 201C928 201 896 201 864 201C832 201 800 201 768 201C736 201 704 201 672 201C640 201 608 201 576 201C544 201 512 201 480 201C448 201 416 201 384 201C352 201 320 201 288 201C256 201 224 201 192 201C160 201 128 201 96 201C64 201 32 201 16 201L0 201Z" fill="#191919"></path><path d="M0 150L16 151.3C32 152.7 64 155.3 96 158.3C128 161.3 160 164.7 192 169C224 173.3 256 178.7 288 181.2C320 183.7 352 183.3 384 180.5C416 177.7 448 172.3 480 169.3C512 166.3 544 165.7 576 166.5C608 167.3 640 169.7 672 169.2C704 168.7 736 165.3 768 163.8C800 162.3 832 162.7 864 161.8C896 161 928 159 960 161.8C992 164.7 1024 172.3 1056 172.5C1088 172.7 1120 165.3 1152 165.5C1184 165.7 1216 173.3 1248 178.3C1280 183.3 1312 185.7 1344 186C1376 186.3 1408 184.7 1440 184.8C1472 185 1504 187 1536 187.2C1568 187.3 1600 185.7 1632 183.8C1664 182 1696 180 1728 179.8C1760 179.7 1792 181.3 1824 177.7C1856 174 1888 165 1904 160.5L1920 156L1920 201L1904 201C1888 201 1856 201 1824 201C1792 201 1760 201 1728 201C1696 201 1664 201 1632 201C1600 201 1568 201 1536 201C1504 201 1472 201 1440 201C1408 201 1376 201 1344 201C1312 201 1280 201 1248 201C1216 201 1184 201 1152 201C1120 201 1088 201 1056 201C1024 201 992 201 960 201C928 201 896 201 864 201C832 201 800 201 768 201C736 201 704 201 672 201C640 201 608 201 576 201C544 201 512 201 480 201C448 201 416 201 384 201C352 201 320 201 288 201C256 201 224 201 192 201C160 201 128 201 96 201C64 201 32 201 16 201L0 201Z" fill="#212121"></path><path d="M0 174L16 176.3C32 178.7 64 183.3 96 185.7C128 188 160 188 192 188.8C224 189.7 256 191.3 288 190.7C320 190 352 187 384 183.7C416 180.3 448 176.7 480 175C512 173.3 544 173.7 576 175.2C608 176.7 640 179.3 672 182.2C704 185 736 188 768 187C800 186 832 181 864 181C896 181 928 186 960 184.7C992 183.3 1024 175.7 1056 176C1088 176.3 1120 184.7 1152 188.7C1184 192.7 1216 192.3 1248 189.7C1280 187 1312 182 1344 178.7C1376 175.3 1408 173.7 1440 175.8C1472 178 1504 184 1536 185.8C1568 187.7 1600 185.3 1632 184.5C1664 183.7 1696 184.3 1728 184.8C1760 185.3 1792 185.7 1824 183.3C1856 181 1888 176 1904 173.5L1920 171L1920 201L1904 201C1888 201 1856 201 1824 201C1792 201 1760 201 1728 201C1696 201 1664 201 1632 201C1600 201 1568 201 1536 201C1504 201 1472 201 1440 201C1408 201 1376 201 1344 201C1312 201 1280 201 1248 201C1216 201 1184 201 1152 201C1120 201 1088 201 1056 201C1024 201 992 201 960 201C928 201 896 201 864 201C832 201 800 201 768 201C736 201 704 201 672 201C640 201 608 201 576 201C544 201 512 201 480 201C448 201 416 201 384 201C352 201 320 201 288 201C256 201 224 201 192 201C160 201 128 201 96 201C64 201 32 201 16 201L0 201Z" fill="#282828"></path></svg>