<svg id="visual" viewBox="0 0 1920 200" width="1920" height="200" xmlns="http://www.w3.org/2000/svg" xmlns:xlink="http://www.w3.org/1999/xlink" version="1.1"><rect x="0" y="0" width="1920" height="200" fill="#0A0A0A"></rect><path d="M0 140L16 134.5C32 129 64 118 96 115C128 112 160 117 192 116.3C224 115.7 256 109.3 288 100.2C320 91 352 79 384 83.7C416 88.3 448 109.7 480 123.3C512 137 544 143 576 144.8C608 146.7 640 144.3 672 136.5C704 128.7 736 115.3 768 111C800 106.7 832 111.3 864 111.7C896 112 928 108 960 113.3C992 118.7 1024 133.3 1056 134.7C1088 136 1120 124 1152 121.8C1184 119.7 1216 127.3 1248 126.2C1280 125 1312 115 1344 119C1376 123 1408 141 1440 151.7C1472 162.3 1504 165.7 1536 165.8C1568 166 1600 163 1632 162.5C1664 162 1696 164 1728 155.7C1760 147.3 1792 128.7 1824 122.5C1856 116.3 1888 122.7 1904 125.8L1920 129L1920 0L1904 0C1888 0 1856 0 1824 0C1792 0 1760 0 1728 0C1696 0 1664 0 1632 0C1600 0 1568 0 1536 0C1504 0 1472 0 1440 0C1408 0 1376 0 1344 0C1312 0 1280 0 1248 0C1216 0 1184 0 1152 0C1120 0 1088 0 1056 0C1024 0 992 0 960 0C928 0 896 0 864 0C832 0 800 0 768 0C736 0 704 0 672 0C640 0 608 0 576 0C544 0 512 0 480 0C448 0 416 0 384 0C352 0 320 0 288 0C256 0 224 0 192 0C160 0 128 0 96 0C64 0 32 0 16 0L0 0Z" fill="#000000"></path><path d="M0 93L16 103.5C32 114 64 135 96 130.7C128 126.3 160 96.7 192 90.3C224 84 256 101 288 107.8C320 114.7 352 111.3 384 115.7C416 120 448 132 480 125.3C512 118.7 544 93.3 576 90.7C608 88 640 108 672 110C704 112 736 96 768 101.8C800 107.7 832 135.3 864 145.3C896 155.3 928 147.7 960 130C992 112.3 1024 84.7 1056 80.2C1088 75.7 1120 94.3 1152 111C1184 127.7 1216 142.3 1248 138.5C1280 134.7 1312 112.3 1344 100.3C1376 88.3 1408 86.7 1440 88.2C1472 89.7 1504 94.3 1536 94.8C1568 95.3 1600 91.7 1632 87.3C1664 83 1696 78 1728 75.2C1760 72.3 1792 71.7 1824 80.5C1856 89.3 1888 107.7 1904 116.8L1920 126L1920 0L1904 0C1888 0 1856 0 1824 0C1792 0 1760 0 1728 0C1696 0 1664 0 1632 0C1600 0 1568 0 1536 0C1504 0 1472 0 1440 0C1408 0 1376 0 1344 0C1312 0 1280 0 1248 0C1216 0 1184 0 1152 0C1120 0 1088 0 1056 0C1024 0 992 0 960 0C928 0 896 0 864 0C832 0 800 0 768 0C736 0 704 0 672 0C640 0 608 0 576 0C544 0 512 0 480 0C448 0 416 0 384 0C352 0 320 0 288 0C256 0 224 0 192 0C160 0 128 0 96 0C64 0 32 0 16 0L0 0Z" fill="#000000"></path><path d="M0 130L16 132.8C32 135.7 64 141.3 96 144.3C128 147.3 160 147.7 192 147.7C224 147.7 256 147.3 288 135.8C320 124.3 352 101.7 384 100.7C416 99.7 448 120.3 480 122.8C512 125.3 544 109.7 576 109.5C608 109.3 640 124.7 672 123.3C704 122 736 104 768 95.3C800 86.7 832 87.3 864 81.5C896 75.7 928 63.3 960 70.7C992 78 1024 105 1056 107.7C1088 110.3 1120 88.7 1152 76C1184 63.3 1216 59.7 1248 71.5C1280 83.3 1312 110.7 1344 113.8C1376 117 1408 96 1440 88.8C1472 81.7 1504 88.3 1536 86.2C1568 84 1600 73 1632 76.5C1664 80 1696 98 1728 106.8C1760 115.7 1792 115.3 1824 111.8C1856 108.3 1888 101.7 1904 98.3L1920 95L1920 0L1904 0C1888 0 1856 0 1824 0C1792 0 1760 0 1728 0C1696 0 1664 0 1632 0C1600 0 1568 0 1536 0C1504 0 1472 0 1440 0C1408 0 1376 0 1344 0C1312 0 1280 0 1248 0C1216 0 1184 0 1152 0C1120 0 1088 0 1056 0C1024 0 992 0 960 0C928 0 896 0 864 0C832 0 800 0 768 0C736 0 704 0 672 0C640 0 608 0 576 0C544 0 512 0 480 0C448 0 416 0 384 0C352 0 320 0 288 0C256 0 224 0 192 0C160 0 128 0 96 0C64 0 32 0 16 0L0 0Z" fill="#000000"></path><path d="M0 89L16 83.8C32 78.7 64 68.3 96 69.2C128 70 160 82 192 89C224 96 256 98 288 91.8C320 85.7 352 71.3 384 62.8C416 54.3 448 51.7 480 59C512 66.3 544 83.7 576 91.7C608 99.7 640 98.3 672 94.7C704 91 736 85 768 80.2C800 75.3 832 71.7 864 68C896 64.3 928 60.7 960 65.5C992 70.3 1024 83.7 1056 90.3C1088 97 1120 97 1152 102.3C1184 107.7 1216 118.3 1248 112C1280 105.7 1312 82.3 1344 72.2C1376 62 1408 65 1440 72C1472 79 1504 90 1536 89.3C1568 88.7 1600 76.3 1632 74C1664 71.7 1696 79.3 1728 88.5C1760 97.7 1792 108.3 1824 115.8C1856 123.3 1888 127.7 1904 129.8L1920 132L1920 0L1904 0C1888 0 1856 0 1824 0C1792 0 1760 0 1728 0C1696 0 1664 0 1632 0C1600 0 1568 0 1536 0C1504 0 1472 0 1440 0C1408 0 1376 0 1344 0C1312 0 1280 0 1248 0C1216 0 1184 0 1152 0C1120 0 1088 0 1056 0C1024 0 992 0 960 0C928 0 896 0 864 0C832 0 800 0 768 0C736 0 704 0 672 0C640 0 608 0 576 0C544 0 512 0 480 0C448 0 416 0 384 0C352 0 320 0 288 0C256 0 224 0 192 0C160 0 128 0 96 0C64 0 32 0 16 0L0 0Z" fill="#000000"></path><path d="M0 49L16 58C32 67 64 85 96 95.7C128 106.3 160 109.7 192 108.8C224 108 256 103 288 94.2C320 85.3 352 72.7 384 64.8C416 57 448 54 480 60C512 66 544 81 576 84.2C608 87.3 640 78.7 672 70.8C704 63 736 56 768 51.7C800 47.3 832 45.7 864 49.5C896 53.3 928 62.7 960 73C992 83.3 1024 94.7 1056 96.3C1088 98 1120 90 1152 78.8C1184 67.7 1216 53.3 1248 52.3C1280 51.3 1312 63.7 1344 76C1376 88.3 1408 100.7 1440 96.8C1472 93 1504 73 1536 64.7C1568 56.3 1600 59.7 1632 68.5C1664 77.3 1696 91.7 1728 89C1760 86.3 1792 66.7 1824 67C1856 67.3 1888 87.7 1904 97.8L1920 108L1920 0L1904 0C1888 0 1856 0 1824 0C1792 0 1760 0 1728 0C1696 0 1664 0 1632 0C1600 0 1568 0 1536 0C1504 0 1472 0 1440 0C1408 0 1376 0 1344 0C1312 0 1280 0 1248 0C1216 0 1184 0 1152 0C1120 0 1088 0 1056 0C1024 0 992 0 960 0C928 0 896 0 864 0C832 0 800 0 768 0C736 0 704 0 672 0C640 0 608 0 576 0C544 0 512 0 480 0C448 0 416 0 384 0C352 0 320 0 288 0C256 0 224 0 192 0C160 0 128 0 96 0C64 0 32 0 16 0L0 0Z" fill="#000000"></path><path d="M0 87L16 77.7C32 68.3 64 49.7 96 40.5C128 31.3 160 31.7 192 35.3C224 39 256 46 288 51.8C320 57.7 352 62.3 384 63.3C416 64.3 448 61.7 480 60.8C512 60 544 61 576 61.5C608 62 640 62 672 67.8C704 73.7 736 85.3 768 84.7C800 84 832 71 864 65.5C896 60 928 62 960 57.5C992 53 1024 42 1056 46.3C1088 50.7 1120 70.3 1152 79.8C1184 89.3 1216 88.7 1248 86C1280 83.3 1312 78.7 1344 76C1376 73.3 1408 72.7 1440 75.8C1472 79 1504 86 1536 85.3C1568 84.7 1600 76.3 1632 73.3C1664 70.3 1696 72.7 1728 66.7C1760 60.7 1792 46.3 1824 45.5C1856 44.7 1888 57.3 1904 63.7L1920 70L1920 0L1904 0C1888 0 1856 0 1824 0C1792 0 1760 0 1728 0C1696 0 1664 0 1632 0C1600 0 1568 0 1536 0C1504 0 1472 0 1440 0C1408 0 1376 0 1344 0C1312 0 1280 0 1248 0C1216 0 1184 0 1152 0C1120 0 1088 0 1056 0C1024 0 992 0 960 0C928 0 896 0 864 0C832 0 800 0 768 0C736 0 704 0 672 0C640 0 608 0 576 0C544 0 512 0 480 0C448 0 416 0 384 0C352 0 320 0 288 0C256 0 224 0 192 0C160 0 128 0 96 0C64 0 32 0 16 0L0 0Z" fill="#070707"></path><path d="M0 81L16 75.2C32 69.3 64 57.7 96 55.8C128 54 160 62 192 67.7C224 73.3 256 76.7 288 72.7C320 68.7 352 57.3 384 57C416 56.7 448 67.3 480 72.5C512 77.7 544 77.3 576 77.2C608 77 640 77 672 69.8C704 62.7 736 48.3 768 47C800 45.7 832 57.3 864 58.2C896 59 928 49 960 42.8C992 36.7 1024 34.3 1056 35.3C1088 36.3 1120 40.7 1152 45C1184 49.3 1216 53.7 1248 58.3C1280 63 1312 68 1344 70.7C1376 73.3 1408 73.7 1440 72.5C1472 71.3 1504 68.7 1536 62.5C1568 56.3 1600 46.7 1632 47C1664 47.3 1696 57.7 1728 62.2C1760 66.7 1792 65.3 1824 61.2C1856 57 1888 50 1904 46.5L1920 43L1920 0L1904 0C1888 0 1856 0 1824 0C1792 0 1760 0 1728 0C1696 0 1664 0 1632 0C1600 0 1568 0 1536 0C1504 0 1472 0 1440 0C1408 0 1376 0 1344 0C1312 0 1280 0 1248 0C1216 0 1184 0 1152 0C1120 0 1088 0 1056 0C1024 0 992 0 960 0C928 0 896 0 864 0C832 0 800 0 768 0C736 0 704 0 672 0C640 0 608 0 576 0C544 0 512 0 480 0C448 0 416 0 384 0C352 0 320 0 288 0C256 0 224 0 192 0C160 0 128 0 96 0C64 0 32 0 16 0L0 0Z" fill="#121212"></path><path d="M0 31L16 33C32 35 64 39 96 37C128 35 160 27 192 28.2C224 29.3 256 39.7 288 42.5C320 45.3 352 40.7 384 39.7C416 38.7 448 41.3 480 43.7C512 46 544 48 576 44.7C608 41.3 640 32.7 672 33.5C704 34.3 736 44.7 768 51.3C800 58 832 61 864 57.7C896 54.3 928 44.7 960 37C992 29.3 1024 23.7 1056 26.2C1088 28.7 1120 39.3 1152 41.2C1184 43 1216 36 1248 37.5C1280 39 1312 49 1344 54C1376 59 1408 59 1440 56.3C1472 53.7 1504 48.3 1536 41.8C1568 35.3 1600 27.7 1632 31C1664 34.3 1696 48.7 1728 50.7C1760 52.7 1792 42.3 1824 35.3C1856 28.3 1888 24.7 1904 22.8L1920 21L1920 0L1904 0C1888 0 1856 0 1824 0C1792 0 1760 0 1728 0C1696 0 1664 0 1632 0C1600 0 1568 0 1536 0C1504 0 1472 0 1440 0C1408 0 1376 0 1344 0C1312 0 1280 0 1248 0C1216 0 1184 0 1152 0C1120 0 1088 0 1056 0C1024 0 992 0 960 0C928 0 896 0 864 0C832 0 800 0 768 0C736 0 704 0 672 0C640 0 608 0 576 0C544 0 512 0 480 0C448 0 416 0 384 0C352 0 320 0 288 0C256 0 224 0 192 0C160 0 128 0 96 0C64 0 32 0 16 0L0 0Z" fill="#191919"></path><path d="M0 48L16 46.7C32 45.3 64 42.7 96 39.7C128 36.7 160 33.3 192 29C224 24.7 256 19.3 288 16.8C320 14.3 352 14.7 384 17.5C416 20.3 448 25.7 480 28.7C512 31.7 544 32.3 576 31.5C608 30.7 640 28.3 672 28.8C704 29.3 736 32.7 768 34.2C800 35.7 832 35.3 864 36.2C896 37 928 39 960 36.2C992 33.3 1024 25.7 1056 25.5C1088 25.3 1120 32.7 1152 32.5C1184 32.3 1216 24.7 1248 19.7C1280 14.7 1312 12.3 1344 12C1376 11.7 1408 13.3 1440 13.2C1472 13 1504 11 1536 10.8C1568 10.7 1600 12.3 1632 14.2C1664 16 1696 18 1728 18.2C1760 18.3 1792 16.7 1824 20.3C1856 24 1888 33 1904 37.5L1920 42L1920 0L1904 0C1888 0 1856 0 1824 0C1792 0 1760 0 1728 0C1696 0 1664 0 1632 0C1600 0 1568 0 1536 0C1504 0 1472 0 1440 0C1408 0 1376 0 1344 0C1312 0 1280 0 1248 0C1216 0 1184 0 1152 0C1120 0 1088 0 1056 0C1024 0 992 0 960 0C928 0 896 0 864 0C832 0 800 0 768 0C736 0 704 0 672 0C640 0 608 0 576 0C544 0 512 0 480 0C448 0 416 0 384 0C352 0 320 0 288 0C256 0 224 0 192 0C160 0 128 0 96 0C64 0 32 0 16 0L0 0Z" fill="#212121"></path><path d="M0 24L16 21.8C32 19.7 64 15.3 96 13C128 10.7 160 10.3 192 9.3C224 8.3 256 6.7 288 7.3C320 8 352 11 384 14.3C416 17.7 448 21.3 480 23C512 24.7 544 24.3 576 22.8C608 21.3 640 18.7 672 15.8C704 13 736 10 768 11C800 12 832 17 864 17C896 17 928 12 960 13.3C992 14.7 1024 22.3 1056 22C1088 21.7 1120 13.3 1152 9.3C1184 5.3 1216 5.7 1248 8.3C1280 11 1312 16 1344 19.3C1376 22.7 1408 24.3 1440 22.2C1472 20 1504 14 1536 12.2C1568 10.3 1600 12.7 1632 13.5C1664 14.3 1696 13.7 1728 13.2C1760 12.7 1792 12.3 1824 14.7C1856 17 1888 22 1904 24.5L1920 27L1920 0L1904 0C1888 0 1856 0 1824 0C1792 0 1760 0 1728 0C1696 0 1664 0 1632 0C1600 0 1568 0 1536 0C1504 0 1472 0 1440 0C1408 0 1376 0 1344 0C1312 0 1280 0 1248 0C1216 0 1184 0 1152 0C1120 0 1088 0 1056 0C1024 0 992 0 960 0C928 0 896 0 864 0C832 0 800 0 768 0C736 0 704 0 672 0C640 0 608 0 576 0C544 0 512 0 480 0C448 0 416 0 384 0C352 0 320 0 288 0C256 0 224 0 192 0C160 0 128 0 96 0C64 0 32 0 16 0L0 0Z" fill="#282828"></path></svg>