<svg id="visual" viewBox="0 0 1920 6340" width="1920" height="6340" xmlns="http://www.w3.org/2000/svg" xmlns:xlink="http://www.w3.org/1999/xlink" version="1.1"><rect x="0" y="0" width="1920" height="6340" fill="#0A0A0A"></rect><path d="M0 4015L274 4237L549 4167L823 4567L1097 4237L1371 3719L1646 4164L1920 3957L1920 6341L1646 6341L1371 6341L1097 6341L823 6341L549 6341L274 6341L0 6341Z" fill="#f49983"></path><path d="M0 5080L274 4841L549 4650L823 4600L1097 4865L1371 4978L1646 4975L1920 4930L1920 6341L1646 6341L1371 6341L1097 6341L823 6341L549 6341L274 6341L0 6341Z" fill="#ed8268"></path><path d="M0 4897L274 4872L549 4916L823 5350L1097 5322L1371 4706L1646 4628L1920 4904L1920 6341L1646 6341L1371 6341L1097 6341L823 6341L549 6341L274 6341L0 6341Z" fill="#e56a4e"></path><path d="M0 5508L274 5439L549 5185L823 5516L1097 5725L1371 5589L1646 5164L1920 5560L1920 6341L1646 6341L1371 6341L1097 6341L823 6341L549 6341L274 6341L0 6341Z" fill="#c85a42"></path><path d="M0 5943L274 5960L549 5980L823 5955L1097 5971L1371 5774L1646 5588L1920 5554L1920 6341L1646 6341L1371 6341L1097 6341L823 6341L549 6341L274 6341L0 6341Z" fill="#ab4b37"></path></svg>